<svg width="500" height="500" viewBox="0 0 500 500" fill="none" xmlns="http://www.w3.org/2000/svg">
<rect x="97.9688" y="94.7187" width="307.725" height="223.593" fill="white"/>
<path d="M176.212 236.846C186.564 236.846 194.956 223.748 194.956 207.592C194.956 191.436 186.564 178.339 176.212 178.339C165.86 178.339 157.469 191.436 157.469 207.592C157.469 223.748 165.86 236.846 176.212 236.846Z" fill="#483BDF"/>
<path d="M290.549 236.846C300.901 236.846 309.293 223.748 309.293 207.592C309.293 191.436 300.901 178.339 290.549 178.339C280.197 178.339 271.805 191.436 271.805 207.592C271.805 223.748 280.197 236.846 290.549 236.846Z" fill="#483BDF"/>
<path d="M212.387 449.171C236.192 444.641 363.087 354.238 379.581 342.536C312.104 342.536 244.627 342.536 177.149 342.536C185.771 350.463 189.895 358.201 192.144 363.297C199.267 379.905 197.205 396.703 194.019 419.917C193.081 427.089 191.957 432.939 191.207 436.903C191.207 438.413 191.02 442.754 194.019 446.34C198.705 451.813 208.639 449.737 212.387 449.171Z" fill="#483BDF"/>
<path d="M406.385 327.437L323.538 248.169" stroke="#57E2C9" stroke-width="7.2395" stroke-miterlimit="10"/>
<path d="M290.549 264.778C322.536 264.778 348.467 238.668 348.467 206.459C348.467 174.251 322.536 148.141 290.549 148.141C258.562 148.141 232.631 174.251 232.631 206.459C232.631 238.668 258.562 264.778 290.549 264.778Z" stroke="#57E2C9" stroke-width="7.74061" stroke-miterlimit="10"/>
<path d="M427.565 82.651C420.63 75.6678 411.071 74.3467 407.322 73.9692C337.783 66.6086 249.125 66.6086 249.125 66.6086C249.125 66.6086 164.778 66.6086 91.6779 73.9692C87.7417 74.3467 78.3698 75.4791 71.4347 82.651C66.1864 88.1242 63 95.4848 63 103.412V311.584C63 313.849 63.1874 316.114 63.7497 318.379C64.1246 319.888 65.8116 326.683 71.4347 332.345C77.8075 338.762 86.4296 340.272 91.6779 341.027C137.225 346.311 249.125 345.934 249.125 345.934C249.125 345.934 362.525 346.122 407.322 341.027C412.008 340.46 421.38 338.951 428.128 331.779C435.063 324.418 435.813 314.793 436 311.584C436 308.753 436 305.922 436 303.091C436 236.468 436 169.846 436 103.223C436 95.4848 432.814 88.1242 427.565 82.651ZM395.701 278.367C395.701 280.443 395.701 282.519 395.701 284.595C395.701 287.049 395.139 294.032 389.516 299.505C384.267 304.79 376.77 305.922 373.209 306.3C337.97 310.074 249.125 309.886 249.125 309.886C249.125 309.886 161.405 310.263 125.791 306.3C121.668 305.922 114.92 304.601 109.859 299.883C105.548 295.542 104.049 290.635 103.861 289.502C103.486 287.804 103.299 286.294 103.299 284.595V129.834C103.299 123.795 105.923 118.322 109.859 114.358C115.295 109.074 122.605 108.319 125.791 107.941C183.147 102.468 249.125 102.468 249.125 102.468C249.125 102.468 318.664 102.468 373.209 107.941C376.208 108.319 383.705 109.074 389.141 114.358C393.264 118.322 395.701 123.795 395.701 129.834C395.701 179.471 395.701 228.919 395.701 278.367Z" fill="#483BDF"/>
<path d="M177.149 50H156.531V82.0846H177.149V50Z" fill="#483BDF"/>
<path d="M343.969 50H323.35V82.0846H343.969V50Z" fill="#483BDF"/>
</svg>
